<svg xmlns="http://www.w3.org/2000/svg" viewBox="0 0 720 820" role="img" aria-label="Developer illustration">
  <defs>
    <radialGradient id="r" cx="15%" cy="85%" r="70%"><stop offset="0" stop-color="#ff2d55" stop-opacity=".75"/><stop offset="1" stop-color="#ff2d55" stop-opacity="0"/></radialGradient>
    <radialGradient id="b" cx="88%" cy="12%" r="70%"><stop offset="0" stop-color="#3b6cff" stop-opacity=".8"/><stop offset="1" stop-color="#3b6cff" stop-opacity="0"/></radialGradient>
    <linearGradient id="body" x1="0" y1="0" x2="0" y2="1"><stop offset="0" stop-color="#1b1b2e"/><stop offset="1" stop-color="#07070d"/></linearGradient>
    <linearGradient id="rimL" x1="0" x2="1"><stop offset="0" stop-color="#ff2d55"/><stop offset=".35" stop-color="#ff2d55" stop-opacity="0"/></linearGradient>
    <linearGradient id="rimR" x1="1" x2="0"><stop offset="0" stop-color="#3b6cff"/><stop offset=".35" stop-color="#3b6cff" stop-opacity="0"/></linearGradient>
  </defs>
  <rect width="720" height="820" fill="#08080f"/>
  <rect width="720" height="820" fill="url(#r)"/>
  <rect width="720" height="820" fill="url(#b)"/>
  <g opacity=".08" stroke="#fff">
    <path d="M60 0v820M140 0v820M220 0v820M300 0v820M380 0v820M460 0v820M540 0v820M620 0v820"/>
  </g>
  <g>
    <path id="p" d="M360 180c-78 0-132 62-132 146 0 58 26 108 64 136-104 24-196 96-226 214l-10 144h608l-10-144c-30-118-122-190-226-214 38-28 64-78 64-136 0-84-54-146-132-146z" fill="url(#body)"/>
    <use href="#p" fill="url(#rimL)" opacity=".55"/>
    <use href="#p" fill="url(#rimR)" opacity=".6"/>
    <path d="M214 330c0-96 64-170 146-170s146 74 146 170" fill="none" stroke="#2a2a44" stroke-width="18" stroke-linecap="round"/>
    <rect x="196" y="300" width="44" height="92" rx="20" fill="#16162a" stroke="#ff2d55" stroke-opacity=".6" stroke-width="3"/>
    <rect x="480" y="300" width="44" height="92" rx="20" fill="#16162a" stroke="#3b6cff" stroke-opacity=".7" stroke-width="3"/>
    <path d="M292 318h136" stroke="#3b6cff" stroke-width="10" stroke-linecap="round" opacity=".9"/>
    <path d="M292 318h60" stroke="#ff2d55" stroke-width="10" stroke-linecap="round"/>
  </g>
  <g font-family="monospace" font-size="15" fill="#9a9ab3" opacity=".7">
    <text x="48" y="92">&lt;/&gt; build.deploy()</text>
    <text x="498" y="760">status: online</text>
  </g>
</svg>
